<?xml version="1.0" standalone="no"?>
<!DOCTYPE svg PUBLIC "-//W3C//DTD SVG 20010904//EN"
 "http://www.w3.org/TR/2001/REC-SVG-20010904/DTD/svg10.dtd">
<svg version="1.0" xmlns="http://www.w3.org/2000/svg"
 width="700.000000pt" height="700.000000pt" viewBox="0 0 700.000000 700.000000"
 preserveAspectRatio="xMidYMid meet">
<metadata>
Created by potrace 1.14, written by Peter Selinger 2001-2017
</metadata>
<g transform="translate(0.000000,700.000000) scale(0.100000,-0.100000)"
fill="#000000" stroke="none">
<path d="M2525 6570 c-43 -10 -57 -18 -290 -175 -115 -78 -435 -292 -710 -475
-275 -184 -516 -351 -536 -371 -21 -22 -41 -56 -48 -81 -9 -33 -11 -621 -9
-2463 3 -2243 4 -2422 20 -2451 43 -78 133 -129 213 -118 76 9 2 -38 815 517
217 149 437 299 487 334 51 35 95 63 98 63 2 0 5 -172 7 -382 l3 -383 25 -45
c48 -85 149 -129 241 -105 46 11 103 48 544 350 138 94 315 216 395 270 80 54
206 140 280 190 74 50 140 94 145 97 7 4 10 -119 9 -360 -1 -392 1 -413 50
-476 27 -36 95 -72 148 -79 57 -7 123 22 263 118 72 49 213 145 315 215 102
70 244 166 315 215 72 49 177 121 235 160 58 40 186 127 285 195 191 130 193
133 227 195 l22 40 1 2410 c1 2362 0 2411 -19 2458 -47 117 -184 168 -299 111
-29 -15 -751 -494 -792 -527 -10 -8 -501 -337 -521 -350 -9 -5 -12 89 -12 364
0 364 -1 373 -22 415 -44 85 -111 124 -206 120 -47 -2 -71 -9 -108 -32 -25
-16 -330 -219 -676 -452 l-630 -422 0 362 c0 225 -4 378 -11 401 -13 47 -71
113 -114 131 -42 18 -103 25 -140 16z m45 -2585 l0 -2364 -100 -68 c-56 -37
-192 -130 -303 -207 -347 -238 -508 -347 -642 -437 -71 -49 -134 -92 -140 -96
-5 -5 -61 -43 -122 -85 l-113 -76 0 2376 0 2377 486 325 c267 179 583 391 702
472 120 81 220 147 225 147 4 1 7 -1063 7 -2364z m1643 1948 c0 -219 -2 -1280
-2 -2359 l-1 -1960 -145 -100 c-80 -54 -195 -133 -255 -174 -173 -118 -520
-355 -695 -474 -88 -60 -195 -133 -238 -162 -42 -30 -79 -54 -82 -54 -3 0 -5
1068 -5 2373 l0 2373 648 434 c356 239 674 452 707 475 33 23 62 38 65 34 3
-4 4 -186 3 -406z m1642 -1957 c0 -2081 -2 -2357 -15 -2369 -8 -8 -98 -70
-200 -139 -102 -69 -283 -192 -403 -274 -509 -349 -789 -539 -796 -542 -8 -3
-9 4744 -1 4750 3 2 136 91 295 198 715 477 1081 724 1094 736 9 8 18 10 21 5
3 -6 5 -1070 5 -2365z"/>
</g>
</svg>
